<mxfile host="app.diagrams.net" modified="2022-06-30T06:09:11.921Z" agent="5.0 (Macintosh; Intel Mac OS X 10_15_7) AppleWebKit/537.36 (KHTML, like Gecko) Chrome/102.0.0.0 Safari/537.36" etag="rTaaSL5ifcdHVf0Er_jn" version="18.1.3" type="github">
  <diagram id="lDTodh5J8AndZFEe-JJb" name="Page-1">
    <mxGraphModel dx="1298" dy="809" grid="1" gridSize="10" guides="1" tooltips="1" connect="1" arrows="1" fold="1" page="1" pageScale="1" pageWidth="827" pageHeight="1169" math="0" shadow="0">
      <root>
        <mxCell id="0" />
        <mxCell id="1" parent="0" />
        <mxCell id="KoPIXANO1AIOusYI-XiK-3" value="browser" style="shape=umlLifeline;perimeter=lifelinePerimeter;whiteSpace=wrap;html=1;container=1;collapsible=0;recursiveResize=0;outlineConnect=0;" vertex="1" parent="1">
          <mxGeometry x="110" y="190" width="80" height="310" as="geometry" />
        </mxCell>
        <mxCell id="KoPIXANO1AIOusYI-XiK-4" value="web" style="shape=umlLifeline;perimeter=lifelinePerimeter;whiteSpace=wrap;html=1;container=1;collapsible=0;recursiveResize=0;outlineConnect=0;" vertex="1" parent="1">
          <mxGeometry x="220" y="190" width="80" height="310" as="geometry" />
        </mxCell>
        <mxCell id="KoPIXANO1AIOusYI-XiK-15" value="" style="html=1;points=[];perimeter=orthogonalPerimeter;" vertex="1" parent="KoPIXANO1AIOusYI-XiK-4">
          <mxGeometry x="35" y="60" width="10" height="180" as="geometry" />
        </mxCell>
        <mxCell id="KoPIXANO1AIOusYI-XiK-5" value="team-service" style="shape=umlLifeline;perimeter=lifelinePerimeter;whiteSpace=wrap;html=1;container=1;collapsible=0;recursiveResize=0;outlineConnect=0;" vertex="1" parent="1">
          <mxGeometry x="334" y="190" width="80" height="310" as="geometry" />
        </mxCell>
        <mxCell id="KoPIXANO1AIOusYI-XiK-17" value="" style="html=1;points=[];perimeter=orthogonalPerimeter;" vertex="1" parent="KoPIXANO1AIOusYI-XiK-5">
          <mxGeometry x="35" y="90" width="10" height="60" as="geometry" />
        </mxCell>
        <mxCell id="KoPIXANO1AIOusYI-XiK-6" value="kiwi menu" style="html=1;verticalAlign=bottom;endArrow=block;rounded=0;entryX=0.1;entryY=0.225;entryDx=0;entryDy=0;entryPerimeter=0;" edge="1" parent="1" source="KoPIXANO1AIOusYI-XiK-3" target="KoPIXANO1AIOusYI-XiK-15">
          <mxGeometry width="80" relative="1" as="geometry">
            <mxPoint x="370" y="270" as="sourcePoint" />
            <mxPoint x="250" y="270" as="targetPoint" />
          </mxGeometry>
        </mxCell>
        <mxCell id="KoPIXANO1AIOusYI-XiK-7" value="kiwi" style="shape=umlLifeline;perimeter=lifelinePerimeter;whiteSpace=wrap;html=1;container=1;collapsible=0;recursiveResize=0;outlineConnect=0;" vertex="1" parent="1">
          <mxGeometry x="440" y="190" width="80" height="310" as="geometry" />
        </mxCell>
        <mxCell id="KoPIXANO1AIOusYI-XiK-22" value="" style="html=1;points=[];perimeter=orthogonalPerimeter;" vertex="1" parent="KoPIXANO1AIOusYI-XiK-7">
          <mxGeometry x="35" y="160" width="10" height="80" as="geometry" />
        </mxCell>
        <mxCell id="KoPIXANO1AIOusYI-XiK-16" value="domain static" style="html=1;verticalAlign=bottom;endArrow=block;rounded=0;exitX=1;exitY=0.355;exitDx=0;exitDy=0;exitPerimeter=0;" edge="1" parent="1" source="KoPIXANO1AIOusYI-XiK-15" target="KoPIXANO1AIOusYI-XiK-5">
          <mxGeometry width="80" relative="1" as="geometry">
            <mxPoint x="370" y="410" as="sourcePoint" />
            <mxPoint x="450" y="410" as="targetPoint" />
          </mxGeometry>
        </mxCell>
        <mxCell id="KoPIXANO1AIOusYI-XiK-23" value="domain static" style="html=1;verticalAlign=bottom;endArrow=block;rounded=0;entryX=0.1;entryY=0.763;entryDx=0;entryDy=0;entryPerimeter=0;" edge="1" parent="1" source="KoPIXANO1AIOusYI-XiK-4" target="KoPIXANO1AIOusYI-XiK-22">
          <mxGeometry width="80" relative="1" as="geometry">
            <mxPoint x="370" y="410" as="sourcePoint" />
            <mxPoint x="450" y="410" as="targetPoint" />
          </mxGeometry>
        </mxCell>
      </root>
    </mxGraphModel>
  </diagram>
</mxfile>
